{"asset":{"version":"2.0","generator":"babylon.js glTF exporter for 3ds max 2018 v1.3.33"},"scene":0,"scenes":[{"nodes":[0,1,3,10],"extensions":{}}],"nodes":[{"mesh":0,"translation":[-0.05101393,0.0,0.0],"rotation":[-0.5,-0.5,0.5,-0.5],"scale":[1.0,1.0,1.0],"name":"Cylinder007"},{"children":[2],"mesh":1,"translation":[-0.01534422,-3.89245486E-07,6.435873E-09],"rotation":[4.37113172E-08,-1.0,-2.38418579E-07,1.62920685E-07],"scale":[1.0,1.0,1.0],"name":"Line002"},{"mesh":2,"translation":[-0.011065267,0.0,-4.7683707E-10],"rotation":[1.53133087E-07,-6.8839384E-08,0.7071068,0.7071068],"scale":[1.0,1.0,1.0],"name":"Tube001"},{"children":[4],"mesh":3,"translation":[-0.0480383858,-2.520934E-09,0.0],"rotation":[4.371139E-08,-1.0,5.96046448E-08,4.371139E-08],"scale":[1.0,1.0,1.0],"name":"Line035"},{"children":[5,9],"mesh":4,"translation":[-0.00316492468,5.61376634E-09,-9.094947E-16],"rotation":[-4.371139E-08,2.82129974E-07,1.0,1.0658141E-14],"scale":[1.0,1.0,1.0],"name":"Line038"},{"children":[6,7],"mesh":5,"translation":[0.0199558716,3.927943E-07,-5.829293E-14],"rotation":[-4.3711367E-08,-1.0,1.62920685E-07,1.1920929E-07],"scale":[1.0,1.0,1.0],"name":"Shprits Colba"},{"mesh":6,"translation":[0.0403434075,-3.89099142E-07,-4.91827132E-06],"rotation":[3.55271368E-15,-1.0,1.62920685E-07,-7.54979E-08],"scale":[1.0,1.0,1.0],"name":"Object001"},{"children":[8],"mesh":7,"translation":[0.059880726,-2.0640438E-10,8.163869E-09],"rotation":[1.545431E-08,1.54542814E-08,0.70710665,0.7071069],"scale":[1.0,1.0,1.0],"name":"Cylinder002"},{"mesh":8,"translation":[-1.0342978E-08,0.0606504269,-8.662137E-09],"rotation":[1.22433789E-07,-2.50801921E-08,-0.7071067,0.7071068],"scale":[1.0,1.0,1.0],"name":"Line001"},{"mesh":9,"translation":[-0.0285605025,2.27261965E-09,-8.259818E-11],"rotation":[3.63867372E-07,-1.95279966E-07,0.7071068,0.7071068],"scale":[1.0,1.0,1.0],"name":"Helix004"},{"translation":[0.0,0.0,0.0],"rotation":[0.0,0.0,0.0,1.0],"scale":[1.0,1.0,1.0],"name":"Default light"}],"meshes":[{"primitives":[{"attributes":{"POSITION":1,"NORMAL":2,"TEXCOORD_0":3},"indices":0}],"name":"Cylinder007"},{"primitives":[{"attributes":{"POSITION":5,"NORMAL":6},"indices":4}],"name":"Line002"},{"primitives":[{"attributes":{"POSITION":8,"NORMAL":9,"TEXCOORD_0":10},"indices":7}],"name":"Tube001"},{"primitives":[{"attributes":{"POSITION":12,"NORMAL":13,"TEXCOORD_0":14},"indices":11}],"name":"Line035"},{"primitives":[{"attributes":{"POSITION":16,"NORMAL":17,"TEXCOORD_0":18},"indices":15}],"name":"Line038"},{"primitives":[{"attributes":{"POSITION":20,"NORMAL":21},"indices":19}],"name":"Shprits Colba"},{"primitives":[{"attributes":{"POSITION":23,"NORMAL":24},"indices":22}],"name":"Object001"},{"primitives":[{"attributes":{"POSITION":26,"NORMAL":27,"TEXCOORD_0":28},"indices":25}],"name":"Cylinder002"},{"primitives":[{"attributes":{"POSITION":30,"NORMAL":31},"indices":29}],"name":"Line001"},{"primitives":[{"attributes":{"POSITION":33,"NORMAL":34},"indices":32}],"name":"Helix004"}],"accessors":[{"bufferView":0,"componentType":5123,"count":288,"type":"SCALAR","name":"accessorIndices"},{"bufferView":1,"componentType":5126,"count":288,"max":[0.009436014,0.031,0.009436014],"min":[-0.009436014,0.0,-0.009436014],"type":"VEC3","name":"accessorPositions"},{"bufferView":1,"byteOffset":3456,"componentType":5126,"count":288,"type":"VEC3","name":"accessorNormals"},{"bufferView":2,"componentType":5126,"count":288,"type":"VEC2","name":"accessorUVs"},{"bufferView":0,"byteOffset":576,"componentType":5123,"count":1752,"type":"SCALAR","name":"accessorIndices"},{"bufferView":1,"byteOffset":6912,"componentType":5126,"count":1752,"max":[0.0002737818,0.00316976313,0.00321866153],"min":[-0.0173865724,-0.00316976267,-0.00321866153],"type":"VEC3","name":"accessorPositions"},{"bufferView":1,"byteOffset":27936,"componentType":5126,"count":1752,"type":"VEC3","name":"accessorNormals"},{"bufferView":0,"byteOffset":4080,"componentType":5123,"count":288,"type":"SCALAR","name":"accessorIndices"},{"bufferView":1,"byteOffset":48960,"componentType":5126,"count":288,"max":[0.000187521451,0.0209733546,0.000187521349],"min":[-0.000187521364,0.000247734075,-0.000187521466],"type":"VEC3","name":"accessorPositions"},{"bufferView":1,"byteOffset":52416,"componentType":5126,"count":288,"type":"VEC3","name":"accessorNormals"},{"bufferView":2,"byteOffset":2304,"componentType":5126,"count":288,"type":"VEC2","name":"accessorUVs"},{"bufferView":0,"byteOffset":4656,"componentType":5123,"count":20160,"type":"SCALAR","name":"accessorIndices"},{"bufferView":1,"byteOffset":55872,"componentType":5126,"count":20160,"max":[0.0391348749,0.0134303542,0.0201658923],"min":[-0.03913487,-0.0134303551,-0.0201658886],"type":"VEC3","name":"accessorPositions"},{"bufferView":1,"byteOffset":297792,"componentType":5126,"count":20160,"type":"VEC3","name":"accessorNormals"},{"bufferView":2,"byteOffset":4608,"componentType":5126,"count":20160,"type":"VEC2","name":"accessorUVs"},{"bufferView":0,"byteOffset":44976,"componentType":5123,"count":15156,"type":"SCALAR","name":"accessorIndices"},{"bufferView":1,"byteOffset":539712,"componentType":5126,"count":15156,"max":[0.03220043,0.0105733564,0.009891804],"min":[-0.03293932,-0.0105733564,-0.009891803],"type":"VEC3","name":"accessorPositions"},{"bufferView":1,"byteOffset":721584,"componentType":5126,"count":15156,"type":"VEC3","name":"accessorNormals"},{"bufferView":2,"byteOffset":165888,"componentType":5126,"count":15156,"type":"VEC2","name":"accessorUVs"},{"bufferView":0,"byteOffset":75288,"componentType":5123,"count":9936,"type":"SCALAR","name":"accessorIndices"},{"bufferView":1,"byteOffset":903456,"componentType":5126,"count":9936,"max":[0.05144756,0.005132764,0.00513276132],"min":[-0.012913771,-0.00513275946,-0.005132762],"type":"VEC3","name":"accessorPositions"},{"bufferView":1,"byteOffset":1022688,"componentType":5126,"count":9936,"type":"VEC3","name":"accessorNormals"},{"bufferView":0,"byteOffset":95160,"componentType":5123,"count":1152,"type":"SCALAR","name":"accessorIndices"},{"bufferView":1,"byteOffset":1141920,"componentType":5126,"count":1152,"max":[0.00168380362,0.00409176573,0.00409176527],"min":[-0.00168379222,-0.00409176573,-0.0040917634],"type":"VEC3","name":"accessorPositions"},{"bufferView":1,"byteOffset":1155744,"componentType":5126,"count":1152,"type":"VEC3","name":"accessorNormals"},{"bufferView":0,"byteOffset":97464,"componentType":5123,"count":7218,"type":"SCALAR","name":"accessorIndices"},{"bufferView":1,"byteOffset":1169568,"componentType":5126,"count":7218,"max":[0.0114555089,0.0606151745,0.0114522865],"min":[-0.0114181116,-0.00649102032,-0.011421334],"type":"VEC3","name":"accessorPositions"},{"bufferView":1,"byteOffset":1256184,"componentType":5126,"count":7218,"type":"VEC3","name":"accessorNormals"},{"bufferView":2,"byteOffset":287136,"componentType":5126,"count":7218,"type":"VEC2","name":"accessorUVs"},{"bufferView":0,"byteOffset":111900,"componentType":5123,"count":12096,"type":"SCALAR","name":"accessorIndices"},{"bufferView":1,"byteOffset":1342800,"componentType":5126,"count":12096,"max":[0.005097166,0.00322985486,0.00322985533],"min":[-0.00337787461,-0.00322985556,-0.00322985533],"type":"VEC3","name":"accessorPositions"},{"bufferView":1,"byteOffset":1487952,"componentType":5126,"count":12096,"type":"VEC3","name":"accessorNormals"},{"bufferView":0,"byteOffset":136092,"componentType":5123,"count":34620,"type":"SCALAR","name":"accessorIndices"},{"bufferView":1,"byteOffset":1633104,"componentType":5126,"count":34620,"max":[0.008700531,0.0003167267,0.008700538],"min":[-0.008700722,-0.01574782,-0.008700772],"type":"VEC3","name":"accessorPositions"},{"bufferView":1,"byteOffset":2048544,"componentType":5126,"count":34620,"type":"VEC3","name":"accessorNormals"}],"bufferViews":[{"buffer":0,"byteLength":205332,"name":"bufferViewScalar"},{"buffer":0,"byteOffset":205332,"byteLength":2463984,"byteStride":12,"name":"bufferViewFloatVec3"},{"buffer":0,"byteOffset":2669316,"byteLength":344880,"byteStride":8,"name":"bufferViewFloatVec2"}],"buffers":[{"uri":"Elonva Export001.bin","byteLength":3014196}]}