{
  "accessors": [
    {
      "bufferView": 2,
      "componentType": 5126,
      "count": 1097,
      "max": [
        5.1708955764770508,
        5.1708955764770508,
        51.272537231445312
      ],
      "min": [
        -5.1708955764770508,
        -5.1708955764770508,
        0
      ],
      "type": "VEC3"
    },
    {
      "bufferView": 2,
      "byteOffset": 13164,
      "componentType": 5126,
      "count": 1097,
      "max": [
        1,
        1,
        1
      ],
      "min": [
        -1,
        -1,
        -1
      ],
      "type": "VEC3"
    },
    {
      "bufferView": 3,
      "componentType": 5126,
      "count": 1097,
      "max": [
        1,
        1,
        0.99780982732772827,
        1
      ],
      "min": [
        -1,
        -1,
        -0.99816733598709106,
        -1
      ],
      "type": "VEC4"
    },
    {
      "bufferView": 1,
      "componentType": 5126,
      "count": 1097,
      "max": [
        1.0215409994125366,
        1.1478983163833618
      ],
      "min": [
        -0.044120348989963531,
        -0.054159700870513916
      ],
      "type": "VEC2"
    },
    {
      "bufferView": 0,
      "componentType": 5125,
      "count": 2820,
      "max": [
        1096
      ],
      "min": [
        0
      ],
      "type": "SCALAR"
    },
    {
      "bufferView": 2,
      "byteOffset": 26328,
      "componentType": 5126,
      "count": 2088,
      "max": [
        3.6949007511138916,
        0.75153911113739014,
        3.7207105159759521
      ],
      "min": [
        -4.9029121398925781,
        -6.6898813247680664,
        -3.7207098007202148
      ],
      "type": "VEC3"
    },
    {
      "bufferView": 2,
      "byteOffset": 51384,
      "componentType": 5126,
      "count": 2088,
      "max": [
        1,
        0.99949699640274048,
        0.9994969367980957
      ],
      "min": [
        -0.99220073223114014,
        -0.9994969367980957,
        -0.9994969367980957
      ],
      "type": "VEC3"
    },
    {
      "bufferView": 0,
      "byteOffset": 11280,
      "componentType": 5125,
      "count": 10902,
      "max": [
        2087
      ],
      "min": [
        0
      ],
      "type": "SCALAR"
    },
    {
      "bufferView": 2,
      "byteOffset": 76440,
      "componentType": 5126,
      "count": 2552,
      "max": [
        20.266071319580078,
        1.0790728330612183,
        4.188138484954834
      ],
      "min": [
        -6.6865472793579102,
        -7.2972021102905273,
        -4.1881365776062012
      ],
      "type": "VEC3"
    },
    {
      "bufferView": 2,
      "byteOffset": 107064,
      "componentType": 5126,
      "count": 2552,
      "max": [
        1,
        1,
        1
      ],
      "min": [
        -1,
        -1,
        -1
      ],
      "type": "VEC3"
    },
    {
      "bufferView": 3,
      "byteOffset": 17552,
      "componentType": 5126,
      "count": 2552,
      "max": [
        1,
        0.99989181756973267,
        1,
        1
      ],
      "min": [
        -1,
        -1,
        -1,
        -1
      ],
      "type": "VEC4"
    },
    {
      "bufferView": 1,
      "byteOffset": 8776,
      "componentType": 5126,
      "count": 2552,
      "max": [
        1,
        1.1599657535552979
      ],
      "min": [
        -4.4703483581542969e-08,
        -0.0017191227525472641
      ],
      "type": "VEC2"
    },
    {
      "bufferView": 0,
      "byteOffset": 54888,
      "componentType": 5125,
      "count": 5592,
      "max": [
        2551
      ],
      "min": [
        0
      ],
      "type": "SCALAR"
    },
    {
      "bufferView": 2,
      "byteOffset": 137688,
      "componentType": 5126,
      "count": 1946,
      "max": [
        8.4347906112670898,
        1.5057545900344849,
        3.7901918888092041
      ],
      "min": [
        -16.884416580200195,
        -6.0746259689331055,
        -3.7901887893676758
      ],
      "type": "VEC3"
    },
    {
      "bufferView": 2,
      "byteOffset": 161040,
      "componentType": 5126,
      "count": 1946,
      "max": [
        1,
        1,
        1
      ],
      "min": [
        -1,
        -1,
        -1
      ],
      "type": "VEC3"
    },
    {
      "bufferView": 0,
      "byteOffset": 77256,
      "componentType": 5125,
      "count": 7128,
      "max": [
        1945
      ],
      "min": [
        0
      ],
      "type": "SCALAR"
    },
    {
      "bufferView": 2,
      "byteOffset": 184392,
      "componentType": 5126,
      "count": 6785,
      "max": [
        39.817569732666016,
        4.5356554985046387,
        5.5024194717407227
      ],
      "min": [
        -21.934932708740234,
        -10.459242820739746,
        -5.499413013458252
      ],
      "type": "VEC3"
    },
    {
      "bufferView": 2,
      "byteOffset": 265812,
      "componentType": 5126,
      "count": 6785,
      "max": [
        1,
        1,
        1
      ],
      "min": [
        -1,
        -1,
        -1
      ],
      "type": "VEC3"
    },
    {
      "bufferView": 3,
      "byteOffset": 58384,
      "componentType": 5126,
      "count": 6785,
      "max": [
        1,
        0.99999123811721802,
        0.99995237588882446,
        1
      ],
      "min": [
        -1,
        -0.99998509883880615,
        -0.99995237588882446,
        -1
      ],
      "type": "VEC4"
    },
    {
      "bufferView": 1,
      "byteOffset": 29192,
      "componentType": 5126,
      "count": 6785,
      "max": [
        1,
        1
      ],
      "min": [
        0,
        0
      ],
      "type": "VEC2"
    },
    {
      "bufferView": 0,
      "byteOffset": 105768,
      "componentType": 5125,
      "count": 39312,
      "max": [
        6784
      ],
      "min": [
        0
      ],
      "type": "SCALAR"
    },
    {
      "bufferView": 2,
      "byteOffset": 347232,
      "componentType": 5126,
      "count": 154,
      "max": [
        4.4933409690856934,
        4.4933404922485352,
        45
      ],
      "min": [
        -4.4933404922485352,
        -4.4933404922485352,
        0
      ],
      "type": "VEC3"
    },
    {
      "bufferView": 2,
      "byteOffset": 349080,
      "componentType": 5126,
      "count": 154,
      "max": [
        1,
        1,
        2.7396742652285866e-08
      ],
      "min": [
        -1,
        -1,
        -2.7396662716228093e-08
      ],
      "type": "VEC3"
    },
    {
      "bufferView": 3,
      "byteOffset": 166944,
      "componentType": 5126,
      "count": 154,
      "max": [
        1,
        1,
        1.1301490854265239e-09,
        1
      ],
      "min": [
        -1,
        -1,
        -1.1301640734373564e-09,
        1
      ],
      "type": "VEC4"
    },
    {
      "bufferView": 1,
      "byteOffset": 83472,
      "componentType": 5126,
      "count": 154,
      "max": [
        1,
        1
      ],
      "min": [
        0,
        0
      ],
      "type": "VEC2"
    },
    {
      "bufferView": 0,
      "byteOffset": 263016,
      "componentType": 5125,
      "count": 456,
      "max": [
        153
      ],
      "min": [
        0
      ],
      "type": "SCALAR"
    },
    {
      "bufferView": 2,
      "byteOffset": 350928,
      "componentType": 5126,
      "count": 104,
      "max": [
        0.18456831574440002,
        0.18456831574440002,
        20.643062591552734
      ],
      "min": [
        -0.18456831574440002,
        -0.18456831574440002,
        0
      ],
      "type": "VEC3"
    },
    {
      "bufferView": 2,
      "byteOffset": 352176,
      "componentType": 5126,
      "count": 104,
      "max": [
        0.99999988079071045,
        0.99999970197677612,
        0.17432275414466858
      ],
      "min": [
        -0.99999988079071045,
        -0.99999964237213135,
        -1
      ],
      "type": "VEC3"
    },
    {
      "bufferView": 3,
      "byteOffset": 169408,
      "componentType": 5126,
      "count": 104,
      "max": [
        0.98512107133865356,
        1,
        0.99999946355819702,
        1
      ],
      "min": [
        -0.98512113094329834,
        -0.98512107133865356,
        -0.99999988079071045,
        1
      ],
      "type": "VEC4"
    },
    {
      "bufferView": 1,
      "byteOffset": 84704,
      "componentType": 5126,
      "count": 104,
      "max": [
        1,
        1
      ],
      "min": [
        0,
        0
      ],
      "type": "VEC2"
    },
    {
      "bufferView": 0,
      "byteOffset": 264840,
      "componentType": 5125,
      "count": 288,
      "max": [
        103
      ],
      "min": [
        0
      ],
      "type": "SCALAR"
    },
    {
      "bufferView": 4,
      "componentType": 5126,
      "count": 51,
      "max": [
        3.5333333015441895
      ],
      "min": [
        1.2000000476837158
      ],
      "type": "SCALAR"
    },
    {
      "bufferView": 5,
      "componentType": 5126,
      "count": 51,
      "max": [
        71.022674560546875,
        2.7671456336975098e-05,
        0.00038510595913976431
      ],
      "min": [
        42.331649780273438,
        2.7671456336975098e-05,
        0.00038510595913976431
      ],
      "type": "VEC3"
    },
    {
      "bufferView": 4,
      "byteOffset": 204,
      "componentType": 5126,
      "count": 49,
      "max": [
        4.3666667938232422
      ],
      "min": [
        0.86666667461395264
      ],
      "type": "SCALAR"
    },
    {
      "bufferView": 5,
      "byteOffset": 612,
      "componentType": 5126,
      "count": 49,
      "max": [
        -31.946874618530273,
        0.0015835762023925781,
        1.212228767144552e-06
      ],
      "min": [
        -68.098930358886719,
        0.0015835762023925781,
        1.212228767144552e-06
      ],
      "type": "VEC3"
    }
  ],
  "animations": [
    {
      "channels": [
        {
          "sampler": 0,
          "target": {
            "node": 5,
            "path": "translation"
          }
        },
        {
          "sampler": 1,
          "target": {
            "node": 9,
            "path": "translation"
          }
        }
      ],
      "name": "Take 001",
      "samplers": [
        {
          "input": 31,
          "interpolation": "LINEAR",
          "output": 32
        },
        {
          "input": 33,
          "interpolation": "LINEAR",
          "output": 34
        }
      ]
    }
  ],
  "asset": {
    "extras": {
      "author": "Sabinin.Andrey (https://sketchfab.com/Sabinin.Andrey)",
      "license": "CC-BY-4.0 (http://creativecommons.org/licenses/by/4.0/)",
      "source": "https://sketchfab.com/3d-models/orgal006-5222d388d95f4dd1b78421c4f1f47aab",
      "title": "Orgal006"
    },
    "generator": "Sketchfab-6.9.0",
    "version": "2.0"
  },
  "bufferViews": [
    {
      "buffer": 0,
      "byteLength": 265992,
      "byteOffset": 0,
      "name": "floatBufferViews",
      "target": 34963
    },
    {
      "buffer": 0,
      "byteLength": 85536,
      "byteOffset": 265992,
      "byteStride": 8,
      "name": "floatBufferViews",
      "target": 34962
    },
    {
      "buffer": 0,
      "byteLength": 353424,
      "byteOffset": 351528,
      "byteStride": 12,
      "name": "floatBufferViews",
      "target": 34962
    },
    {
      "buffer": 0,
      "byteLength": 171072,
      "byteOffset": 704952,
      "byteStride": 16,
      "name": "floatBufferViews",
      "target": 34962
    },
    {
      "buffer": 0,
      "byteLength": 400,
      "byteOffset": 876024,
      "name": "floatBufferViews"
    },
    {
      "buffer": 0,
      "byteLength": 1200,
      "byteOffset": 876424,
      "byteStride": 12,
      "name": "floatBufferViews"
    }
  ],
  "buffers": [
    {
      "byteLength": 877624,
      "uri": "scene.bin"
    }
  ],
  "images": [
    {
      "uri": "textures/Nadpis_baseColor.png"
    }
  ],
  "materials": [
    {
      "alphaMode": "BLEND",
      "doubleSided": true,
      "emissiveFactor": [
        0,
        0,
        0
      ],
      "name": "08_-_Defaultffff",
      "pbrMetallicRoughness": {
        "baseColorFactor": [
          0.25681957710110381,
          0.28069431538822859,
          0.29912425904419992,
          0.080983231707317069
        ],
        "metallicFactor": 1,
        "roughnessFactor": 0.071455792682926789
      }
    },
    {
      "doubleSided": true,
      "emissiveFactor": [
        0,
        0,
        0
      ],
      "name": "Plastic",
      "pbrMetallicRoughness": {
        "baseColorFactor": [
          0.15524113471798778,
          0.15524113471798778,
          0.15524113471798778,
          1
        ],
        "metallicFactor": 0,
        "roughnessFactor": 0.59584603658536583
      }
    },
    {
      "alphaMode": "BLEND",
      "doubleSided": true,
      "name": "Glass_Matte",
      "pbrMetallicRoughness": {
        "baseColorFactor": [
          0.28830030487804881,
          0.28830030487804881,
          0.28830030487804881,
          0.70293445121951215
        ],
        "metallicFactor": 0,
        "roughnessFactor": 0.44950457317073167
      }
    },
    {
      "alphaCutoff": 0.17854420731707318,
      "alphaMode": "MASK",
      "doubleSided": true,
      "emissiveFactor": [
        0,
        0,
        0
      ],
      "name": "Nadpis",
      "pbrMetallicRoughness": {
        "baseColorFactor": [
          0,
          0,
          0,
          1
        ],
        "baseColorTexture": {
          "index": 0,
          "texCoord": 0
        },
        "metallicFactor": 0,
        "roughnessFactor": 0
      }
    },
    {
      "doubleSided": true,
      "name": "Metall",
      "pbrMetallicRoughness": {
        "baseColorFactor": [
          0.61615180680529213,
          0.640304629572229,
          0.67513953954370676,
          1
        ],
        "metallicFactor": 0.96512957317073167,
        "roughnessFactor": 0.099275914634146339
      }
    }
  ],
  "meshes": [
    {
      "name": "Cylinder002_08 - Defaultffff_0",
      "primitives": [
        {
          "attributes": {
            "NORMAL": 1,
            "POSITION": 0,
            "TANGENT": 2,
            "TEXCOORD_0": 3
          },
          "indices": 4,
          "material": 0,
          "mode": 4
        }
      ]
    },
    {
      "name": "Line001_Plastic_0",
      "primitives": [
        {
          "attributes": {
            "NORMAL": 6,
            "POSITION": 5
          },
          "indices": 7,
          "material": 1,
          "mode": 4
        }
      ]
    },
    {
      "name": "Line005_Glass Matte_0",
      "primitives": [
        {
          "attributes": {
            "NORMAL": 9,
            "POSITION": 8,
            "TANGENT": 10,
            "TEXCOORD_0": 11
          },
          "indices": 12,
          "material": 2,
          "mode": 4
        }
      ]
    },
    {
      "name": "Rezinka Na Iglu_Plastic_0",
      "primitives": [
        {
          "attributes": {
            "NORMAL": 14,
            "POSITION": 13
          },
          "indices": 15,
          "material": 1,
          "mode": 4
        }
      ]
    },
    {
      "name": "Line008_08 - Defaultffff_0",
      "primitives": [
        {
          "attributes": {
            "NORMAL": 17,
            "POSITION": 16,
            "TANGENT": 18,
            "TEXCOORD_0": 19
          },
          "indices": 20,
          "material": 0,
          "mode": 4
        }
      ]
    },
    {
      "name": "Circle001_Nadpis_0",
      "primitives": [
        {
          "attributes": {
            "NORMAL": 22,
            "POSITION": 21,
            "TANGENT": 23,
            "TEXCOORD_0": 24
          },
          "indices": 25,
          "material": 3,
          "mode": 4
        }
      ]
    },
    {
      "name": "Tube001_Metall_0",
      "primitives": [
        {
          "attributes": {
            "NORMAL": 27,
            "POSITION": 26,
            "TANGENT": 28,
            "TEXCOORD_0": 29
          },
          "indices": 30,
          "material": 4,
          "mode": 4
        }
      ]
    }
  ],
  "nodes": [
    {
      "children": [
        1
      ],
      "name": "RootNode (gltf orientation matrix)",
      "rotation": [
        -0.70710678118654746,
        -0,
        -0,
        0.70710678118654757
      ]
    },
    {
      "children": [
        2
      ],
      "name": "RootNode (model correction matrix)"
    },
    {
      "children": [
        3
      ],
      "matrix": [
        1,
        0,
        0,
        0,
        0,
        0,
        1,
        0,
        0,
        -1,
        0,
        0,
        0,
        0,
        0,
        1
      ],
      "name": "456ba534eae248e4912a95a69a2647b8.fbx"
    },
    {
      "children": [
        4
      ],
      "name": ""
    },
    {
      "children": [
        5,
        9,
        14
      ],
      "name": "RootNode"
    },
    {
      "children": [
        6,
        7
      ],
      "name": "Cylinder002",
      "rotation": [
        1.5454311608209537e-08,
        -0.70710670948028564,
        1.5454308055495858e-08,
        0.7071068286895752
      ],
      "translation": [
        42.331649780273438,
        2.7671456336975098e-05,
        0.00038510595913976431
      ]
    },
    {
      "mesh": 0,
      "name": "Cylinder002_08 - Defaultffff_0"
    },
    {
      "children": [
        8
      ],
      "name": "Line001",
      "rotation": [
        7.3756986296302784e-08,
        0.70710676908493042,
        -7.3756979190875427e-08,
        0.7071068286895752
      ],
      "translation": [
        -0.00037384030292741954,
        2.9688220024108887,
        54.292648315429688
      ]
    },
    {
      "mesh": 1,
      "name": "Line001_Plastic_0"
    },
    {
      "children": [
        10,
        12
      ],
      "name": "Line005",
      "rotation": [
        8.1460342471473268e-08,
        0,
        0,
        1
      ],
      "translation": [
        -31.946874618530273,
        0.0015835762023925781,
        1.212228767144552e-06
      ]
    },
    {
      "children": [
        11
      ],
      "matrix": [
        1,
        0,
        -0,
        0,
        0,
        1,
        0,
        0,
        0,
        0,
        1,
        0,
        -6.7897605895996094,
        3.1090645790100098,
        -9.5367431640625e-07,
        1
      ],
      "name": ""
    },
    {
      "mesh": 2,
      "name": "Line005_Glass Matte_0"
    },
    {
      "children": [
        13
      ],
      "name": "Rezinka Na Iglu",
      "rotation": [
        1.3234889800848443e-23,
        0,
        0,
        1
      ],
      "translation": [
        4.4559764862060547,
        2.2839550971984863,
        -9.5367431640625e-07
      ]
    },
    {
      "mesh": 3,
      "name": "Rezinka Na Iglu_Plastic_0"
    },
    {
      "children": [
        15,
        16,
        18
      ],
      "name": "Line008",
      "rotation": [
        8.1460342471473268e-08,
        0,
        0,
        1
      ],
      "translation": [
        -6.3994021415710449,
        2.9577689170837402,
        1.292881819381364e-07
      ]
    },
    {
      "mesh": 4,
      "name": "Line008_08 - Defaultffff_0"
    },
    {
      "children": [
        17
      ],
      "name": "Circle001",
      "rotation": [
        0.70256149768829346,
        -0.080047093331813812,
        -0.70256125926971436,
        0.080046862363815308
      ],
      "translation": [
        36.141860961914062,
        -2.9577903747558594,
        -0.00010478665353730321
      ]
    },
    {
      "mesh": 5,
      "name": "Circle001_Nadpis_0"
    },
    {
      "children": [
        19
      ],
      "name": "Tube001",
      "rotation": [
        -0,
        -0.70710664987564087,
        0,
        0.70710688829421997
      ],
      "translation": [
        -13.411296844482422,
        -2.9577689170837402,
        3.5259353126093629e-07
      ]
    },
    {
      "mesh": 6,
      "name": "Tube001_Metall_0"
    }
  ],
  "samplers": [
    {
      "magFilter": 9729,
      "minFilter": 9987,
      "wrapS": 10497,
      "wrapT": 10497
    }
  ],
  "scene": 0,
  "scenes": [
    {
      "name": "OSG_Scene",
      "nodes": [
        0
      ]
    }
  ],
  "textures": [
    {
      "sampler": 0,
      "source": 0
    }
  ]
}

