{"asset":{"version":"2.0","generator":"babylon.js glTF exporter for 3ds max 2018 v1.3.33"},"scene":0,"scenes":[{"nodes":[0,2,4,7],"extensions":{}}],"nodes":[{"children":[1],"mesh":0,"translation":[1.07522392,7.02855E-07,9.781691E-06],"rotation":[0.49999997,-0.50000006,0.5000001,0.49999997],"scale":[1.0,1.0,1.0],"name":"Cylinder002"},{"mesh":1,"translation":[-9.495544E-06,1.37903321,-0.07540808],"rotation":[9.2631474E-08,-5.48825057E-08,-0.7071068,0.7071068],"scale":[1.0,1.0,1.0],"name":"Line001"},{"children":[3],"mesh":2,"translation":[-0.8114506,4.02228361E-05,3.079061E-08],"rotation":[0.7071068,0.0,0.0,0.7071067],"scale":[1.0,1.0,1.0],"name":"Line005"},{"mesh":3,"translation":[0.1131818,-2.42233273E-08,-0.05801246],"rotation":[0.0,0.0,0.0,1.0],"scale":[1.0,1.0,1.0],"name":"Rezinka Na Iglu"},{"children":[5,6],"mesh":4,"translation":[-0.162544817,0.075127326,3.2839198E-09],"rotation":[0.7071068,0.0,0.0,0.7071067],"scale":[1.0,1.0,1.0],"name":"Line008"},{"mesh":5,"translation":[0.918003261,-2.661581E-06,0.07512788],"rotation":[-0.7025615,0.702561259,-0.08004709,-0.08004687],"scale":[1.0,1.0,1.0],"name":"Circle001"},{"mesh":6,"translation":[-0.340646923,8.955875E-09,0.075127326],"rotation":[1.10986235E-07,-1.10986235E-07,0.7071068,0.7071068],"scale":[1.0,1.0,1.0],"name":"Tube001"},{"translation":[0.0,0.0,0.0],"rotation":[0.0,0.0,0.0,1.0],"scale":[1.0,1.0,1.0],"name":"Default light"}],"meshes":[{"primitives":[{"attributes":{"POSITION":1,"NORMAL":2,"TEXCOORD_0":3},"indices":0,"mode":4,"material":0}],"name":"Cylinder002"},{"primitives":[{"attributes":{"POSITION":5,"NORMAL":6},"indices":4,"mode":4,"material":1}],"name":"Line001"},{"primitives":[{"attributes":{"POSITION":8,"NORMAL":9,"TEXCOORD_0":10},"indices":7,"mode":4,"material":1}],"name":"Line005"},{"primitives":[{"attributes":{"POSITION":12,"NORMAL":13},"indices":11,"mode":4,"material":1}],"name":"Rezinka Na Iglu"},{"primitives":[{"attributes":{"POSITION":15,"NORMAL":16,"TEXCOORD_0":17},"indices":14,"mode":4,"material":0}],"name":"Line008"},{"primitives":[{"attributes":{"POSITION":19,"NORMAL":20,"TEXCOORD_0":21},"indices":18,"mode":4,"material":2}],"name":"Circle001"},{"primitives":[{"attributes":{"POSITION":23,"NORMAL":24,"TEXCOORD_0":25},"indices":22,"mode":4,"material":1}],"name":"Tube001"}],"accessors":[{"bufferView":0,"componentType":5123,"count":2820,"type":"SCALAR","name":"accessorIndices"},{"bufferView":1,"componentType":5126,"count":2820,"max":[0.131340757,1.30232239,0.131340742],"min":[-0.131340727,0.0,-0.131340742],"type":"VEC3","name":"accessorPositions"},{"bufferView":1,"byteOffset":33840,"componentType":5126,"count":2820,"type":"VEC3","name":"accessorNormals"},{"bufferView":2,"componentType":5126,"count":2820,"type":"VEC2","name":"accessorUVs"},{"bufferView":0,"byteOffset":5640,"componentType":5123,"count":10902,"type":"SCALAR","name":"accessorIndices"},{"bufferView":1,"byteOffset":67680,"componentType":5126,"count":10902,"max":[0.09385049,0.09450605,0.169922978],"min":[-0.124533966,-0.0945060253,-0.01908909],"type":"VEC3","name":"accessorPositions"},{"bufferView":1,"byteOffset":198504,"componentType":5126,"count":10902,"type":"VEC3","name":"accessorNormals"},{"bufferView":0,"byteOffset":27444,"componentType":5123,"count":5592,"type":"SCALAR","name":"accessorIndices"},{"bufferView":1,"byteOffset":329328,"componentType":5126,"count":5592,"max":[0.342298329,0.106378689,0.106378689],"min":[-0.34229815,-0.106378689,-0.106378689],"type":"VEC3","name":"accessorPositions"},{"bufferView":1,"byteOffset":396432,"componentType":5126,"count":5592,"type":"VEC3","name":"accessorNormals"},{"bufferView":2,"byteOffset":22560,"componentType":5126,"count":5592,"type":"VEC2","name":"accessorUVs"},{"bufferView":0,"byteOffset":38628,"componentType":5123,"count":7128,"type":"SCALAR","name":"accessorIndices"},{"bufferView":1,"byteOffset":463536,"componentType":5126,"count":7128,"max":[0.21424371,0.0962708741,0.1542955],"min":[-0.428864121,-0.09627079,-0.0382461622],"type":"VEC3","name":"accessorPositions"},{"bufferView":1,"byteOffset":549072,"componentType":5126,"count":7128,"type":"VEC3","name":"accessorNormals"},{"bufferView":0,"byteOffset":52884,"componentType":5123,"count":39312,"type":"SCALAR","name":"accessorIndices"},{"bufferView":1,"byteOffset":634608,"componentType":5126,"count":39312,"max":[1.01136625,0.139761448,0.265664756],"min":[-0.557147264,-0.1396851,-0.115205646],"type":"VEC3","name":"accessorPositions"},{"bufferView":1,"byteOffset":1106352,"componentType":5126,"count":39312,"type":"VEC3","name":"accessorNormals"},{"bufferView":2,"byteOffset":67296,"componentType":5126,"count":39312,"type":"VEC2","name":"accessorUVs"},{"bufferView":0,"byteOffset":131508,"componentType":5123,"count":456,"type":"SCALAR","name":"accessorIndices"},{"bufferView":1,"byteOffset":1578096,"componentType":5126,"count":456,"max":[0.110631317,1.143,0.110631324],"min":[-0.110631324,-4.84466547E-08,-0.110631324],"type":"VEC3","name":"accessorPositions"},{"bufferView":1,"byteOffset":1583568,"componentType":5126,"count":456,"type":"VEC3","name":"accessorNormals"},{"bufferView":2,"byteOffset":381792,"componentType":5126,"count":456,"type":"VEC2","name":"accessorUVs"},{"bufferView":0,"byteOffset":132420,"componentType":5123,"count":288,"type":"SCALAR","name":"accessorIndices"},{"bufferView":1,"byteOffset":1589040,"componentType":5126,"count":288,"max":[0.004688035,0.5243338,0.004688035],"min":[-0.004688035,0.0,-0.004688035],"type":"VEC3","name":"accessorPositions"},{"bufferView":1,"byteOffset":1592496,"componentType":5126,"count":288,"type":"VEC3","name":"accessorNormals"},{"bufferView":2,"byteOffset":385440,"componentType":5126,"count":288,"type":"VEC2","name":"accessorUVs"},{"bufferView":3,"componentType":5126,"count":53,"max":[3.33333325],"min":[0.0],"type":"SCALAR","name":"accessorAnimationInput"},{"bufferView":4,"componentType":5126,"count":53,"type":"VEC3","name":"accessorAnimationPositions"},{"bufferView":3,"byteOffset":212,"componentType":5126,"count":53,"max":[3.33333325],"min":[0.0],"type":"SCALAR","name":"accessorAnimationInput"},{"bufferView":4,"byteOffset":636,"componentType":5126,"count":53,"type":"VEC3","name":"accessorAnimationPositions"}],"bufferViews":[{"buffer":0,"byteLength":132996,"name":"bufferViewScalar"},{"buffer":0,"byteOffset":132996,"byteLength":1595952,"byteStride":12,"name":"bufferViewFloatVec3"},{"buffer":0,"byteOffset":1728948,"byteLength":387744,"byteStride":8,"name":"bufferViewFloatVec2"},{"buffer":0,"byteOffset":2116692,"byteLength":424,"name":"bufferViewAnimationFloatScalar"},{"buffer":0,"byteOffset":2117116,"byteLength":1272,"name":"bufferViewAnimationFloatVec3"}],"buffers":[{"uri":"Orgal Export002.bin","byteLength":2118388}],"materials":[{"pbrMetallicRoughness":{"baseColorFactor":[0.294117659,0.294117659,0.294117659,0.0600000024],"metallicFactor":0.0,"roughnessFactor":0.450053632},"emissiveFactor":[0.0,0.0,0.0],"alphaMode":"BLEND","name":"08 - Defaultffff"},{"pbrMetallicRoughness":{"baseColorFactor":[0.294117659,0.294117659,0.294117659,1.0],"metallicFactor":0.0,"roughnessFactor":0.450053632},"emissiveFactor":[0.0,0.0,0.0],"alphaMode":"OPAQUE","name":"08 - Default"},{"pbrMetallicRoughness":{"baseColorFactor":[0.0,0.0,0.0,1.0],"metallicFactor":0.0,"roughnessFactor":0.450053632},"emissiveFactor":[0.0,0.0,0.0],"alphaMode":"OPAQUE","name":"06 - Default"}],"animations":[{"channels":[{"sampler":0,"target":{"node":0,"path":"translation"}},{"sampler":1,"target":{"node":2,"path":"translation"}}],"samplers":[{"input":26,"interpolation":"LINEAR","output":27},{"input":28,"interpolation":"LINEAR","output":29}],"name":"All Animations"}]}